<svg id="Capa_1" enable-background="new 0 0 497 497" height="512" viewBox="0 0 497 497" width="512" xmlns="http://www.w3.org/2000/svg"><g><circle cx="248.5" cy="248.5" fill="#95b0ed" r="135"/><path d="m248.5 143.5v171.193h81.504c14.687-18.063 23.496-41.098 23.496-66.193 0-57.99-47.01-105-105-105z" fill="#c4f3ff"/><path d="m248.5 143.5c-57.99 0-105 47.01-105 105 0 25.095 8.809 48.13 23.496 66.193h139.721c10.491-18.063 16.783-41.098 16.783-66.193 0-57.99-33.579-105-75-105z" fill="#fff"/><circle cx="248.5" cy="218.5" fill="#666ddc" r="45"/><path d="m301.333 293.5h-30l30 45.729c10.976-6.405 20.696-14.729 28.671-24.536-3.786-12.237-15.232-21.193-28.671-21.193z" fill="#4e4cd3"/><path d="m195.667 293.5c-13.438 0-24.885 8.956-28.671 21.193 7.975 9.808 17.694 18.131 28.671 24.537l30-45.729h-30z" fill="#7d8fe5"/><path d="m271.333 293.5h-45.667c-16.5 0-30 13.5-30 30v15.746c15.519 9.057 33.568 14.254 52.833 14.254s37.314-5.196 52.833-14.254v-15.746c.001-16.5-13.499-30-29.999-30z" fill="#666ddc"/><path d="m271.057 459.5h-.057v-38.5c0-4.142-3.358-7.5-7.5-7.5h-30c-4.142 0-7.5 3.358-7.5 7.5v38.5h-.057c-6.656 0-9.99 8.048-5.283 12.755l22.557 22.557c2.918 2.918 7.648 2.918 10.566 0l22.557-22.557c4.707-4.707 1.373-12.755-5.283-12.755z" fill="#ffd06a"/><path d="m225.943 37.5h.057v38.5c0 4.142 3.358 7.5 7.5 7.5h30c4.142 0 7.5-3.358 7.5-7.5v-38.5h.057c6.656 0 9.99-8.048 5.283-12.755l-22.557-22.557c-2.918-2.918-7.648-2.918-10.566 0l-22.557 22.557c-4.707 4.707-1.373 12.755 5.283 12.755z" fill="#c4f3ff"/><path d="m373.535 419.953-.049.029-19.25-33.342c-2.071-3.587-6.658-4.816-10.245-2.745l-25.981 15c-3.587 2.071-4.816 6.658-2.745 10.245l19.25 33.342-.049.029c-5.765 3.328-4.628 11.964 1.802 13.687l30.814 8.257c3.986 1.068 8.083-1.297 9.151-5.283l8.256-30.814c1.721-6.431-5.189-11.733-10.954-8.405z" fill="#ff9733"/><path d="m123.465 77.047.049-.029 19.25 33.342c2.071 3.587 6.658 4.816 10.245 2.745l25.981-15c3.587-2.071 4.816-6.658 2.745-10.245l-19.25-33.342.049-.029c5.765-3.328 4.628-11.964-1.802-13.687l-30.814-8.256c-3.986-1.068-8.083 1.297-9.151 5.283l-8.256 30.814c-1.721 6.43 5.189 11.732 10.954 8.404z" fill="#14cfff"/><path d="m442.51 334.465-.029.049-33.342-19.25c-3.587-2.071-8.174-.842-10.245 2.745l-15 25.981c-2.071 3.587-.842 8.174 2.745 10.245l33.342 19.25-.029.049c-3.328 5.765 1.975 12.675 8.404 10.953l30.814-8.256c3.986-1.068 6.351-5.165 5.283-9.151l-8.257-30.814c-1.722-6.429-10.358-7.566-13.686-1.801z" fill="#ff545a"/><path d="m54.49 162.535.029-.049 33.342 19.25c3.587 2.071 8.174.842 10.245-2.745l15-25.981c2.071-3.587.842-8.174-2.745-10.245l-33.342-19.25.029-.049c3.328-5.765-1.975-12.675-8.404-10.953l-30.814 8.256c-3.986 1.068-6.351 5.165-5.283 9.151l8.256 30.814c1.723 6.429 10.359 7.566 13.687 1.801z" fill="#318de9"/><path d="m459.5 225.943v.057h-38.5c-4.142 0-7.5 3.358-7.5 7.5v30c0 4.142 3.358 7.5 7.5 7.5h38.5v.057c0 6.656 8.048 9.99 12.755 5.283l22.557-22.557c2.918-2.918 2.918-7.648 0-10.566l-22.557-22.557c-4.707-4.707-12.755-1.373-12.755 5.283z" fill="#ff0787"/><path d="m37.5 271.057v-.057h38.5c4.142 0 7.5-3.358 7.5-7.5v-30c0-4.142-3.358-7.5-7.5-7.5h-38.5v-.057c0-6.656-8.048-9.99-12.755-5.283l-22.557 22.557c-2.918 2.918-2.918 7.648 0 10.566l22.557 22.557c4.707 4.707 12.755 1.373 12.755-5.283z" fill="#14d7b6"/><path d="m419.953 123.465.029.049-33.342 19.25c-3.587 2.071-4.816 6.658-2.745 10.245l15 25.981c2.071 3.587 6.658 4.816 10.245 2.745l33.342-19.25.029.049c3.328 5.765 11.964 4.628 13.687-1.802l8.257-30.814c1.068-3.986-1.297-8.083-5.283-9.151l-30.814-8.256c-6.431-1.721-11.733 5.189-8.405 10.954z" fill="#666ddc"/><path d="m77.047 373.535-.029-.049 33.342-19.25c3.587-2.071 4.816-6.658 2.745-10.245l-15-25.981c-2.071-3.587-6.658-4.816-10.245-2.745l-33.342 19.25-.029-.049c-3.328-5.765-11.964-4.628-13.687 1.802l-8.256 30.814c-1.068 3.986 1.297 8.083 5.283 9.151l30.814 8.256c6.43 1.721 11.732-5.189 8.404-10.954z" fill="#82ffbb"/><path d="m334.465 54.49.049.029-19.25 33.342c-2.071 3.587-.842 8.174 2.745 10.245l25.981 15c3.587 2.071 8.174.842 10.245-2.745l19.25-33.342.049.029c5.765 3.328 12.675-1.975 10.953-8.404l-8.256-30.814c-1.068-3.986-5.165-6.351-9.151-5.283l-30.814 8.256c-6.429 1.723-7.566 10.359-1.801 13.687z" fill="#95b0ed"/><path d="m162.535 442.51-.049-.029 19.25-33.342c2.071-3.587.842-8.174-2.745-10.245l-25.981-15c-3.587-2.071-8.174-.842-10.245 2.745l-19.25 33.342-.049-.029c-5.765-3.328-12.675 1.975-10.953 8.404l8.256 30.814c1.068 3.986 5.165 6.351 9.151 5.283l30.814-8.257c6.429-1.722 7.566-10.358 1.801-13.686z" fill="#ffe7b5"/></g></svg>